<?xml version="1.0" standalone="no"?>
<!DOCTYPE svg PUBLIC "-//W3C//DTD SVG 20010904//EN"
 "http://www.w3.org/TR/2001/REC-SVG-20010904/DTD/svg10.dtd">
<svg version="1.0" xmlns="http://www.w3.org/2000/svg"
 width="1200.000000pt" height="1200.000000pt" viewBox="0 0 1200.000000 1200.000000"
 preserveAspectRatio="xMidYMid meet">

<g transform="translate(0.000000,1200.000000) scale(0.100000,-0.100000)"
fill="#000000" stroke="none">
<path d="M7350 9465 c-342 -50 -614 -158 -1246 -497 -137 -73 -303 -159 -369
-190 -266 -124 -322 -130 -1220 -133 -649 -3 -686 -4 -810 -25 -396 -67 -787
-243 -1154 -517 -211 -159 -344 -301 -494 -528 -189 -287 -313 -609 -363 -945
-21 -138 -24 -461 -5 -590 60 -418 188 -749 395 -1027 293 -392 705 -666 1416
-940 63 -24 180 -71 260 -103 80 -32 289 -112 465 -178 488 -182 660 -261 800
-365 l70 -52 -118 -11 c-113 -11 -120 -12 -150 -43 l-32 -31 -3 -269 c-3 -301
1 -325 60 -361 33 -20 47 -20 1136 -20 1214 0 1152 -3 1192 62 19 31 20 50 20
351 0 350 -2 366 -59 400 -21 12 -52 17 -113 17 l-83 1 44 40 c105 95 277 186
421 223 91 23 274 41 341 32 l55 -7 33 -67 c102 -206 240 -338 433 -412 152
-59 320 -49 562 32 421 140 793 435 1020 810 169 278 298 663 351 1048 22 161
31 534 16 711 -60 722 -313 1484 -739 2224 -102 177 -280 446 -388 585 -109
140 -350 386 -459 468 -210 157 -419 245 -695 293 -152 27 -456 34 -590 14z
m431 -236 c270 -27 478 -100 673 -236 103 -73 328 -296 440 -438 314 -397 639
-1000 832 -1543 113 -317 202 -683 241 -987 27 -213 25 -669 -5 -860 -51 -330
-153 -636 -290 -877 -228 -401 -643 -706 -1081 -793 -116 -24 -180 -17 -275
28 -198 94 -318 313 -372 677 -21 143 -25 488 -6 605 32 193 95 400 185 601
124 279 356 630 579 876 43 47 83 100 89 117 15 41 -3 93 -44 127 -27 23 -38
26 -82 21 -48 -4 -53 -8 -123 -83 -149 -161 -339 -417 -458 -617 -290 -488
-420 -943 -400 -1407 6 -141 24 -313 42 -397 l7 -33 -56 0 c-31 0 -108 -7
-172 -15 -326 -43 -625 -211 -831 -467 -32 -40 -59 -74 -60 -76 -2 -3 -992
-56 -1198 -64 -58 -2 -60 -1 -69 28 -53 162 -344 342 -877 542 -74 28 -133 51
-130 52 3 0 41 -6 85 -14 308 -54 785 -44 1135 25 378 74 696 214 957 420 99
80 258 253 333 366 114 170 201 372 231 536 10 55 10 68 -6 101 -21 44 -59 66
-114 66 -57 0 -96 -36 -111 -103 -106 -475 -436 -838 -947 -1041 -417 -166
-1088 -214 -1550 -110 -451 101 -768 346 -877 681 -30 91 -101 127 -176 88
-66 -34 -77 -100 -35 -212 74 -196 231 -395 414 -524 33 -23 59 -44 57 -46 -8
-8 -493 194 -636 266 -547 273 -874 603 -1047 1055 -46 121 -98 324 -120 466
-26 173 -23 446 6 615 61 347 202 661 426 950 249 320 760 636 1218 754 200
52 238 54 817 52 755 -3 1054 16 1245 81 113 38 312 133 568 272 592 320 890
439 1202 479 65 8 268 6 366 -4z m-1078 -6026 c-13 -2 -33 -2 -45 0 -13 2 -3
4 22 4 25 0 35 -2 23 -4z m-216 -9 c-3 -3 -12 -4 -19 -1 -8 3 -5 6 6 6 11 1
17 -2 13 -5z m-170 -10 c-3 -3 -12 -4 -19 -1 -8 3 -5 6 6 6 11 1 17 -2 13 -5z
m103 -4 c16 -6 6 -7 -30 -3 -30 3 -57 7 -59 9 -8 7 64 2 89 -6z m-251 -9 c11
-7 9 -10 -8 -16 -13 -4 -25 -4 -28 -1 -4 3 2 7 13 7 10 1 1 5 -21 9 l-40 7 35
1 c19 1 41 -2 49 -7z m-241 -8 c-10 -2 -28 -2 -40 0 -13 2 -5 4 17 4 22 1 32
-1 23 -4z m87 -3 c-19 -8 -18 -9 4 -9 13 -1 22 -4 18 -7 -3 -4 -18 -3 -34 0
-21 6 -24 9 -12 17 7 5 21 8 29 8 10 0 8 -3 -5 -9z m-302 -7 c-7 -2 -19 -2
-25 0 -7 3 -2 5 12 5 14 0 19 -2 13 -5z m-160 -10 c-13 -2 -35 -2 -50 0 -16 2
-5 4 22 4 28 0 40 -2 28 -4z m290 0 c-13 -2 -33 -2 -45 0 -13 2 -3 4 22 4 25
0 35 -2 23 -4z m104 1 c-3 -3 -12 -4 -19 -1 -8 3 -5 6 6 6 11 1 17 -2 13 -5z
m-624 -11 c-7 -2 -21 -2 -30 0 -10 3 -4 5 12 5 17 0 24 -2 18 -5z m834 1 c-3
-3 -12 -4 -19 -1 -8 3 -5 6 6 6 11 1 17 -2 13 -5z m-1040 -10 c-3 -3 -12 -4
-19 -1 -8 3 -5 6 6 6 11 1 17 -2 13 -5z m720 0 c-3 -3 -12 -4 -19 -1 -8 3 -5
6 6 6 11 1 17 -2 13 -5z m60 0 c-3 -3 -12 -4 -19 -1 -8 3 -5 6 6 6 11 1 17 -2
13 -5z m-837 -8 c0 -3 -4 -8 -10 -11 -5 -3 -10 -1 -10 4 0 6 5 11 10 11 6 0
10 -2 10 -4z"/>
<path d="M7460 8982 c-24 -20 -30 -63 -11 -85 8 -10 54 -16 162 -20 432 -19
713 -161 983 -499 136 -169 288 -408 417 -654 39 -74 78 -141 86 -149 33 -33
93 -5 93 44 0 73 -331 623 -503 837 -269 332 -566 497 -962 534 -168 15 -239
13 -265 -8z"/>
<path d="M6533 7896 c-106 -95 -155 -287 -123 -484 24 -144 92 -252 159 -252
127 0 212 197 198 455 -10 186 -66 292 -163 311 -27 5 -38 0 -71 -30z"/>
<path d="M5511 7765 c-22 -21 -55 -67 -73 -103 -31 -62 -33 -74 -33 -167 0
-121 20 -189 74 -245 56 -59 102 -64 171 -18 78 53 126 228 102 370 -21 122
-72 186 -158 196 -37 4 -46 0 -83 -33z"/>
<path d="M9180 7470 c-11 -11 -20 -27 -20 -35 0 -21 79 -197 97 -217 34 -38
93 -9 93 44 0 34 -74 199 -96 215 -25 19 -51 16 -74 -7z"/>
<path d="M3635 7194 c-339 -48 -540 -123 -668 -248 -67 -65 -90 -116 -85 -188
11 -148 170 -250 437 -280 235 -26 599 35 776 130 162 88 265 270 206 366 -45
73 -195 156 -351 195 -82 21 -252 34 -315 25z"/>
<path d="M2204 6640 c-28 -11 -31 -22 -40 -134 -6 -85 -5 -99 11 -116 21 -23
53 -26 80 -6 13 10 21 33 26 82 13 113 11 142 -11 164 -22 22 -33 23 -66 10z"/>
<path d="M9267 6350 c-154 -27 -288 -89 -399 -184 -95 -82 -139 -143 -281
-399 -206 -369 -356 -691 -386 -828 -21 -94 -33 -373 -28 -616 7 -318 27 -413
94 -461 48 -33 81 -35 176 -11 87 23 89 23 122 4 22 -11 39 -31 47 -52 7 -18
17 -33 23 -33 32 0 172 47 252 85 120 57 230 133 319 220 86 85 129 144 223
302 182 309 274 577 300 879 14 156 14 432 0 570 -20 201 -88 402 -167 494
l-29 35 -109 2 c-60 1 -131 -2 -157 -7z"/>
<path d="M2174 6215 c-25 -25 -26 -29 -19 -103 27 -310 179 -638 402 -872 95
-100 219 -190 262 -190 36 0 63 30 59 66 -2 22 -15 35 -62 62 -132 77 -291
262 -389 451 -91 175 -138 325 -152 493 -8 82 -17 102 -52 113 -17 4 -30 -1
-49 -20z"/>
</g>
</svg>
